<svg xmlns="http://www.w3.org/2000/svg" width="256" height="256" viewBox="0 0 100 100">
  <rect width="100" height="100" rx="20" fill="#016cac"></rect>
  <path
    d="M51.84 84.65L19.45 84.65L19.45 81.23Q22.95 81.14 25.07 80.69Q27.18 80.24 28.31 79.16Q29.43 78.08 29.84 76.10Q30.24 74.12 30.24 70.97L30.24 70.97L30.24 29.03Q30.24 25.88 29.93 23.95Q29.61 22.01 28.67 20.89Q27.72 19.76 25.92 19.36Q24.13 18.95 21.24 18.77L21.24 18.77L21.24 15.35L48.15 15.35Q60.30 15.35 67.06 19.67Q73.81 23.99 73.81 31.82L73.81 31.82Q73.81 37.76 70.07 41.54Q66.33 45.32 58.23 47.75L58.23 47.75L58.23 48.11Q61.02 48.38 63.09 48.74Q65.16 49.10 66.78 49.60Q68.41 50.09 69.80 50.81Q71.19 51.53 72.54 52.43L72.54 52.43Q80.56 58.10 80.56 66.65L80.56 66.65Q80.56 71.42 77.90 75.52Q75.25 79.61 70.47 81.95L70.47 81.95Q68.94 82.76 67.32 83.26Q65.70 83.75 63.54 84.07Q61.38 84.38 58.55 84.52Q55.71 84.65 51.84 84.65L51.84 84.65ZM52.11 80.78L52.11 80.78Q68.41 80.78 68.41 66.83L68.41 66.83Q68.41 56.66 60.03 52.61L60.03 52.61Q58.59 51.98 57.24 51.53Q55.89 51.08 54.09 50.86Q52.29 50.63 49.82 50.54Q47.34 50.45 43.74 50.45L43.74 50.45L39.69 50.45L39.69 70.52Q39.69 76.01 42.58 78.40Q45.45 80.78 52.11 80.78ZM39.69 45.95L44.73 45.95Q47.52 45.95 49.41 45.86Q51.30 45.77 52.65 45.55Q54.00 45.32 55.04 44.92Q56.07 44.51 57.15 43.79L57.15 43.79Q60.03 41.99 61.25 39.47Q62.46 36.95 62.46 32.90L62.46 32.90Q62.46 25.79 59 22.69Q55.53 19.58 48.15 19.58L48.15 19.58L41.22 19.58Q39.69 19.58 39.69 21.11L39.69 21.11L39.69 45.95Z"
    fill="#fff"></path>
</svg>